<svg xmlns="http://www.w3.org/2000/svg" width="16" height="16" viewBox="0 0 16 16">
  <path fill-rule="evenodd" clip-rule="evenodd" d="M2 1 C1.4477 1 1 1.4477 1 2 V14 C1 14.552 1.4477 15 2 15 H14 C14.552 15 15 14.552 15 14 V2 C15 1.4477 14.552 1 14 1 H2 Z M2 2 H4 V4 H2 V2 Z M2 5 H4 V7 H2 V5 Z M2 8 H4 V10 H2 V8 Z M2 11 H4 V13 H2 V11 Z M12 2 H14 V4 H12 V2 Z M12 5 H14 V7 H12 V5 Z M12 8 H14 V10 H12 V8 Z M12 11 H14 V13 H12 V11 Z M5 2 H11 V13 H5 V2 Z" fill="#e0e0e0"/>
  <path d="M6.5 5 L9.5 7.5 L6.5 10 V5 Z" fill="#e0e0e0"/>
</svg>